<svg xmlns="http://www.w3.org/2000/svg" id="katman_2" data-name="katman 2" viewBox="0 0 532.67 255.01"><defs><style>      .cls-1 {        font-family: Gotham-Bold, Gotham;        font-size: 29.47px;        font-weight: 700;      }      .cls-1, .cls-2 {        fill: #002d74;      }      .cls-3 {        letter-spacing: .36em;      }      .cls-4 {        letter-spacing: .45em;      }      .cls-5 {        letter-spacing: .43em;      }      .cls-6 {        fill: #0071ce;      }    </style></defs><g id="Layer_3" data-name="Layer 3"><g><g><path class="cls-2" d="M0,137.07h38.34v8.24H9.05v14.06h25.97v8.24H9.05v20.97H0v-51.51Z"></path><path class="cls-2" d="M49.3,146.73h9.21v41.85h-9.21v-41.85Z"></path><path class="cls-2" d="M74.65,146.73h19.13c5.32,0,9.45,1.5,12.2,4.25,2.33,2.33,3.59,5.62,3.59,9.57v.12c0,6.76-3.65,11-8.97,12.98l10.22,14.95h-10.76l-8.97-13.39h-7.23v13.39h-9.21v-41.85ZM93.19,167.06c4.48,0,7.05-2.39,7.05-5.92v-.12c0-3.95-2.75-5.98-7.24-5.98h-9.15v12.02h9.33Z"></path><path class="cls-2" d="M119.79,182.49l5.44-6.52c3.77,3.11,7.71,5.08,12.5,5.08,3.77,0,6.04-1.5,6.04-3.95v-.12c0-2.33-1.43-3.53-8.43-5.32-8.43-2.15-13.87-4.49-13.87-12.79v-.12c0-7.59,6.1-12.62,14.65-12.62,6.1,0,11.3,1.91,15.55,5.32l-4.78,6.93c-3.71-2.57-7.35-4.12-10.88-4.12s-5.38,1.61-5.38,3.65v.12c0,2.75,1.79,3.65,9.03,5.5,8.49,2.21,13.27,5.26,13.27,12.56v.12c0,8.31-6.34,12.98-15.37,12.98-6.34,0-12.73-2.21-17.76-6.7Z"></path><path class="cls-2" d="M174.27,155.22h-12.73v-8.49h34.68v8.49h-12.74v33.36h-9.21v-33.36Z"></path><path class="cls-2" d="M210.25,137.07h20.31c12,0,19.57,6.84,19.57,17.22v.15c0,11.55-9.27,17.59-20.6,17.59h-10.23v16.56h-9.05v-51.51ZM229.82,163.86c6.84,0,11.11-3.83,11.11-9.2v-.15c0-6.03-4.34-9.2-11.11-9.2h-10.52v18.54h10.52Z"></path><path class="cls-2" d="M259.36,170.65v-23.92h9.21v23.68c0,6.82,3.41,10.35,9.03,10.35s9.03-3.41,9.03-10.05v-23.97h9.21v23.62c0,12.67-7.11,18.89-18.36,18.89s-18.12-6.28-18.12-18.59Z"></path><path class="cls-2" d="M310.3,146.73h19.13c5.32,0,9.45,1.5,12.2,4.25,2.33,2.33,3.59,5.62,3.59,9.57v.12c0,6.76-3.65,11-8.97,12.98l10.22,14.95h-10.76l-8.97-13.39h-7.23v13.39h-9.21v-41.85ZM328.83,167.06c4.48,0,7.05-2.39,7.05-5.92v-.12c0-3.95-2.75-5.98-7.24-5.98h-9.15v12.02h9.33Z"></path><path class="cls-2" d="M358.31,146.73h17.1c9.99,0,16.02,5.92,16.02,14.47v.12c0,9.68-7.53,14.71-16.92,14.71h-6.99v12.56h-9.21v-41.85ZM374.81,167.84c4.6,0,7.3-2.75,7.3-6.34v-.12c0-4.13-2.87-6.34-7.47-6.34h-7.11v12.79h7.29Z"></path><path class="cls-2" d="M400.88,167.78v-.12c0-11.9,9.39-21.64,22.3-21.64s22.18,9.63,22.18,21.52v.12c0,11.9-9.39,21.64-22.3,21.64s-22.18-9.62-22.18-21.52ZM435.74,167.78v-.12c0-7.18-5.26-13.15-12.68-13.15s-12.56,5.86-12.56,13.03v.12c0,7.17,5.26,13.15,12.68,13.15s12.56-5.86,12.56-13.03Z"></path><path class="cls-2" d="M454.88,182.49l5.44-6.52c3.77,3.11,7.71,5.08,12.5,5.08,3.77,0,6.04-1.5,6.04-3.95v-.12c0-2.33-1.43-3.53-8.43-5.32-8.43-2.15-13.87-4.49-13.87-12.79v-.12c0-7.59,6.1-12.62,14.65-12.62,6.1,0,11.3,1.91,15.55,5.32l-4.78,6.93c-3.71-2.57-7.35-4.12-10.88-4.12s-5.38,1.61-5.38,3.65v.12c0,2.75,1.79,3.65,9.03,5.5,8.49,2.21,13.27,5.26,13.27,12.56v.12c0,8.31-6.34,12.98-15.37,12.98-6.34,0-12.73-2.21-17.76-6.7Z"></path><path class="cls-2" d="M500.8,146.73h31.57v8.19h-22.42v8.49h19.73v8.19h-19.73v8.79h22.72v8.19h-31.87v-41.85Z"></path></g><path class="cls-6" d="M371.62,101.28l-59.43-75.22-19.4,9.36L264.74,0l-28.05,35.42-19.4-9.36-59.53,75.35,5.63,5.83c30.48-18.24,65.43-27.9,101.17-27.9s70.76,9.68,101.26,27.95l5.8-6.01ZM264.74,12.7l20.77,26.23-20.77,10.02-20.78-10.02,20.77-26.23ZM175.28,91.97l44.28-56.05,12.11,5.84-31.87,40.24c-8.38,2.78-16.56,6.12-24.53,9.97ZM238.95,45.27l16.72,8.06-37.38,18.04,20.67-26.1ZM264.56,71.46c-11.67,0-23.23,1.1-34.62,3.04l34.8-16.79,35,16.88c-11.57-2-23.32-3.14-35.18-3.14ZM273.82,53.33l16.71-8.06,20.67,26.1-37.38-18.04ZM297.81,41.76l12.11-5.84,44.5,56.32c-8-3.9-16.21-7.27-24.63-10.09l-31.99-40.39Z"></path><text class="cls-1" transform="translate(211.61 246.26)"><tspan class="cls-3" x="0" y="0">T</tspan><tspan class="cls-5" x="29.71" y="0">A</tspan><tspan class="cls-4" x="65.66" y="0">X</tspan></text></g></g></svg>